<?xml version="1.0" encoding="UTF-8"?>
<svg version="1.1" xmlns="http://www.w3.org/2000/svg" width="512" height="512">
<path d="M0 0 C14.52 0 29.04 0 44 0 C44 14.19 44 28.38 44 43 C58.19 43 72.38 43 87 43 C87 56.86 87 70.72 87 85 C101.19 85 115.38 85 130 85 C130 99.19 130 113.38 130 128 C143.86 128 157.72 128 172 128 C172 142.19 172 156.38 172 171 C186.19 171 200.38 171 215 171 C215 184.86 215 198.72 215 213 C228.86 213 242.72 213 257 213 C257 227.52 257 242.04 257 257 C243.14 257 229.28 257 215 257 C215 271.19 215 285.38 215 300 C200.81 300 186.62 300 172 300 C172 313.86 172 327.72 172 342 C158.14 342 144.28 342 130 342 C130 356.19 130 370.38 130 385 C115.81 385 101.62 385 87 385 C87 398.86 87 412.72 87 427 C72.81 427 58.62 427 44 427 C44 441.19 44 455.38 44 470 C29.48 470 14.96 470 0 470 C0 314.9 0 159.8 0 0 Z " fill="#000000" transform="translate(127,21)"/>
</svg>
